<?xml version="1.0" encoding="UTF-8"?>
<svg width="216px" height="194px" viewBox="0 0 216 194" version="1.1" xmlns="http://www.w3.org/2000/svg" xmlns:xlink="http://www.w3.org/1999/xlink">
    <title>Group</title>
    <g id="Page-1" stroke="none" stroke-width="1" fill="none" fill-rule="evenodd">
        <g id="Elements" transform="translate(-958, -1804)">
            <g id="Group" transform="translate(958, 1804)">
                <path d="M103.847952,51.4931691 C105.746104,50.4305674 108.049625,50.0920862 110.308603,50.7295894 C113.153861,51.5325454 115.37753,53.7562146 116.180486,56.6014719 L141.040219,144.691397 C141.677723,146.950375 141.339241,149.253896 140.27664,151.152048 C139.214038,153.0502 137.427316,154.542983 135.168337,155.180486 C134.417123,155.392485 133.640288,155.5 132.859733,155.5 L83.1402667,155.5 C80.7930565,155.5 78.6680565,154.548605 77.129859,153.010408 C75.5916616,151.47221 74.6402667,149.34721 74.6402667,147 C74.6402667,146.219445 74.7477817,145.44261 74.9597807,144.691397 L99.8195141,56.6014719 C100.457017,54.3424931 101.9498,52.5557709 103.847952,51.4931691 Z" id="Triangle" stroke="#428759" stroke-width="15" fill="#84CB8F" transform="translate(108, 81.5) scale(1, -1) translate(-108, -81.5)"></path>
                <path d="M108,100.127417 C110.17534,100.127417 112.350679,100.957281 114.010408,102.617009 L183.382991,171.989592 C185.042719,173.649321 185.872583,175.82466 185.872583,178 C185.872583,180.17534 185.042719,182.350679 183.382991,184.010408 C181.788931,185.604467 179.626923,186.5 177.372583,186.5 L38.627417,186.5 C36.2802068,186.5 34.1552068,185.548605 32.6170094,184.010408 C31.0788119,182.47221 30.127417,180.34721 30.127417,178 C30.127417,175.74566 31.0229501,173.583652 32.6170094,171.989592 L101.989592,102.617009 C103.649321,100.957281 105.82466,100.127417 108,100.127417 Z" id="Triangle" stroke="#40845D" stroke-width="15" fill="#84CB8F" transform="translate(108, 140) scale(1, -1) translate(-108, -140)"></path>
                <path d="M141.976855,140.398257 C168.762666,140.398257 190.476855,137.26425 190.476855,133.398257 C190.476855,129.532264 168.762666,126.398257 141.976855,126.398257 C115.191045,126.398257 91.8116192,138.339269 91.8116192,142.205262 C91.8116192,146.071255 115.191045,140.398257 141.976855,140.398257 Z" id="Oval" fill-opacity="0.617843094" fill="#63B58C" transform="translate(141.1442, 134.9762) rotate(-40) translate(-141.1442, -134.9762)"></path>
                <path d="M154.784573,33.0581305 C154.784573,29.1921372 115.892786,64.234823 95.2601734,64.234823 C74.6275608,64.234823 93.56685,71.1619335 94.3582708,74.2212179 C94.6301763,75.272285 154.784573,36.9241237 154.784573,33.0581305 Z" id="Oval" fill-opacity="0.617843094" fill="#63B58C" transform="translate(120.2242, 53.5013) rotate(-40) translate(-120.2242, -53.5013)"></path>
                <path d="M129.784573,33.0581305 C129.784573,29.1921372 90.8927859,64.234823 70.2601734,64.234823 C49.6275608,64.234823 68.56685,71.1619335 69.3582708,74.2212179 C69.6301763,75.272285 129.784573,36.9241237 129.784573,33.0581305 Z" id="Oval" fill-opacity="0.617843094" fill="#63B58C" transform="translate(95.2242, 53.5013) scale(-1, 1) rotate(-40) translate(-95.2242, -53.5013)"></path>
                <path d="M76.5365619,140.512052 C103.322372,140.512052 125.036562,137.378045 125.036562,133.512052 C125.036562,129.646058 103.322372,126.512052 76.5365619,126.512052 C49.7507515,126.512052 26.0381639,138.38451 26.0381639,142.250503 C26.0381639,146.116496 49.7507515,140.512052 76.5365619,140.512052 Z" id="Oval" fill-opacity="0.62" fill="#63B58C" transform="translate(75.5374, 135.0613) scale(-1, 1) rotate(-40) translate(-75.5374, -135.0613)"></path>
            </g>
        </g>
    </g>
</svg>